<svg xmlns="http://www.w3.org/2000/svg"
 viewBox="0 0 164 40" fill="none">
<path d="M40 15.9303C40 11.6764 42.4892 7.39502 47.3062 7.39502C49.1175 7.4261 50.6227 8.1052 51.8255 9.4299L50.6957 10.7857C49.8026 9.77901 48.6811 9.26252 47.3313 9.23024C43.6609 9.23024 42.158 12.7464 42.158 15.8825C42.158 18.979 43.5628 22.6351 47.2548 22.6351C48.8007 22.5801 50.0728 21.962 51.0711 20.7771L52.226 22.0827C51.5732 22.8359 50.8367 23.4218 50.0166 23.8414C49.1976 24.2563 48.2519 24.4643 47.1818 24.4643C45.8093 24.4643 44.5743 24.1391 43.503 23.4469C40.8214 21.7276 40 18.7865 40 15.9303Z" fill="white"></path>
<path d="M58.8308 11.666C62.4306 11.666 64.23 14.8594 64.23 18.0923C64.23 21.3873 62.4737 24.4695 58.8308 24.4695C54.59 24.4695 53.1816 21.367 53.1816 18.0923C53.1816 14.4422 55.2739 11.666 58.8308 11.666ZM62.1748 18.0923C62.1748 15.9725 61.3439 13.3733 58.8308 13.3733C56.332 13.3733 55.3158 15.988 55.3158 18.0923C55.3158 20.426 56.2268 22.7622 58.8308 22.7622C61.1466 22.7622 62.1748 20.2108 62.1748 18.0923Z" fill="white"></path>
<path d="M66.6904 24.1683V11.9674H68.3977L68.5735 14.1768H68.6488C69.561 12.4982 71.4464 11.0635 73.4192 11.9172L73.0174 13.7261C70.9981 13.0566 69.506 14.4626 68.7492 16.3384V24.1719L66.6904 24.1683Z" fill="white"></path>
<path d="M73.2422 18.0923C73.2422 14.9814 75.2723 11.666 78.7156 11.666C80.2722 11.666 81.4738 12.1849 82.319 13.2227C83.1643 14.2604 83.5875 15.6497 83.5875 17.3893C83.5875 17.608 83.5828 17.8197 83.5744 18.0289C83.566 18.2393 83.5457 18.4175 83.5122 18.5669H75.2771C75.4265 20.8684 76.9007 22.8136 79.3444 22.8136C80.4408 22.8136 81.4618 22.437 82.3824 21.8571L83.1105 23.2153C81.7607 24.0833 79.9291 24.4695 79.0922 24.4695C75.5042 24.4695 73.2422 21.5104 73.2422 18.0923ZM81.7786 17.088C81.7786 15.2504 81.1007 13.298 78.7658 13.298C76.6795 13.298 75.2508 15.3795 75.2508 17.088H81.7786Z" fill="white"></path>
<path d="M86.109 23.7541C85.7659 23.2771 85.5938 22.592 85.5938 21.7049V6.2915H87.6525V21.858C87.6525 22.5825 88.016 22.8061 88.6819 22.714L88.9569 24.2706C88.5959 24.4524 88.1726 24.4703 87.7781 24.4703C87.0069 24.4691 86.451 24.2312 86.109 23.7541C86.451 24.2312 85.7659 23.2771 86.109 23.7541Z" fill="white"></path>
<path d="M96.0381 24.1679V7.74902H100.432C102.944 7.74902 104.901 8.42691 106.307 9.78151C107.714 11.1385 108.417 13.1722 108.417 15.8838C108.417 18.6121 107.721 20.6768 106.332 22.0745C104.943 23.4721 103.027 24.1703 100.581 24.1703L96.0381 24.1679ZM98.9505 21.809H100.232C101.888 21.809 103.17 21.3296 104.074 20.3636C104.977 19.4011 105.428 17.9079 105.428 15.8838C105.428 13.874 104.977 12.413 104.074 11.49C103.17 10.5682 101.888 10.1091 100.232 10.1091H98.9505V21.809Z" fill="white"></path>
<path d="M111.73 24.1679V7.74902H117.279C120.434 7.74902 123.306 8.99601 123.306 12.6198C123.306 14.8006 122.258 16.5616 120.043 17.3172L123.956 24.1691H120.694L117.154 17.7429H114.641V24.1691L111.73 24.1679ZM114.643 15.433H116.978C118.781 15.433 120.443 14.632 120.443 12.6186C120.443 10.5933 118.709 10.084 116.978 10.084H114.643V15.433Z" fill="white"></path>
<path d="M124.309 24.1679L129.658 7.74902H133.072L138.42 24.1679H135.356L134.076 19.724H128.552L127.275 24.1679H124.309ZM129.231 17.4416H133.423C133.423 17.4416 131.602 10.9125 131.365 10.0075H131.264C131.044 10.9305 129.231 17.4416 129.231 17.4416Z" fill="white"></path>
<path d="M142.087 24.1679L138.824 7.74902H141.811C141.811 7.74902 143.928 20.4126 144.043 21.2818H144.143C144.327 20.4102 147.233 7.74902 147.233 7.74902H149.769C149.769 7.74902 152.699 20.3959 152.882 21.283H152.982C153.114 20.3959 155.191 7.74902 155.191 7.74902H157.979L154.84 24.1679H151.226C151.226 24.1679 148.566 12.358 148.465 11.7387H148.365C148.244 12.3592 145.628 24.1679 145.628 24.1679H142.087Z" fill="white"></path>
<path d="M80.2969 31.2539C80.2969 28.8998 81.679 26.7012 84.2459 26.7012C85.2382 26.7083 86.0644 27.0694 86.7255 27.7832L86.1229 28.5065C85.6339 27.9565 85.017 27.6804 84.2722 27.678C82.2839 27.678 81.4243 29.4929 81.4243 31.2264C81.4243 33.021 82.2648 34.8299 84.2841 34.8299C84.8186 34.8299 85.4379 34.6912 85.8336 34.3063V32.0179H84.0092V31.0961H86.8307V34.7917C86.0942 35.4911 85.2107 35.8294 84.1813 35.8091C81.6072 35.8067 80.2969 33.5925 80.2969 31.2539Z" fill="white"></path>
<path d="M88.7881 35.6464V29.1412H89.68L89.7721 30.3165C90.2228 29.4509 91.2785 28.6606 92.3043 29.1113L92.0939 30.0761C91.0238 29.7318 90.2575 30.4719 89.8629 31.4702V35.6476L88.7881 35.6464Z" fill="white"></path>
<path d="M93.1639 35.3179C92.8088 34.9939 92.6318 34.5408 92.6318 33.9573C92.6318 32.0241 95.0828 31.6846 96.5426 31.5196C96.5426 30.6599 96.1731 29.8888 95.2298 29.8888C94.5352 29.8888 93.8848 30.1925 93.3265 30.5846L92.9056 29.8194C93.6529 29.3269 94.5089 28.9766 95.4128 28.9766C96.9826 28.9766 97.6306 30.2224 97.6306 31.6535V35.6431H96.7375L96.6466 34.8696H96.6083C96.3106 35.1195 95.9854 35.3382 95.6315 35.526C95.2765 35.7125 94.8975 35.8045 94.4946 35.8045C93.9613 35.8069 93.5178 35.6443 93.1639 35.3179ZM94.8102 34.9234C95.4929 34.9234 96.0596 34.4906 96.5438 34.0518V32.2441C95.61 32.3613 93.6839 32.5705 93.6839 33.8772C93.6839 34.2431 93.7927 34.5073 94.0115 34.6747C94.2291 34.8409 94.4946 34.9234 94.8102 34.9234Z" fill="white"></path>
<path d="M99.6416 38.3913V29.1411H100.534L100.624 29.8919H100.664C100.953 29.6409 101.269 29.4245 101.614 29.2487C101.96 29.0706 102.322 28.9785 102.698 28.9785C104.533 28.9785 105.215 30.7037 105.215 32.2986C105.215 33.9187 104.316 35.8077 102.458 35.8077C101.795 35.8077 101.192 35.455 100.689 35.0568V38.3913H99.6416ZM102.278 34.8835C102.803 34.8835 103.238 34.6527 103.583 34.1924C103.929 33.7333 104.105 33.1021 104.105 32.2986C104.105 31.5837 103.979 31.0062 103.717 30.5639C103.46 30.1227 103.03 29.9015 102.426 29.9015C102.155 29.9015 101.883 29.9768 101.606 30.1275C101.329 30.2805 101.033 30.4993 100.719 30.785V34.1972C101.008 34.4471 101.292 34.624 101.559 34.7269C101.827 34.8297 102.067 34.8835 102.278 34.8835Z" fill="white"></path>
<path d="M106.924 35.6466V26.1118H107.996V30.0489C108.59 29.475 109.221 28.9776 110.085 28.9776C111.558 28.9776 112.028 30.2306 112.028 31.5206V35.6442H110.952V31.6677C110.952 30.8379 110.739 29.9281 109.744 29.9281C109.018 29.9281 108.476 30.4458 107.999 30.9336V35.6442L106.924 35.6466Z" fill="white"></path>
<path d="M114.062 35.6463V29.1411H115.136V35.6463H114.062Z" fill="white"></path>
<path d="M114.6 27.7978C114.999 27.7978 115.322 27.4745 115.322 27.0757C115.322 26.6768 114.999 26.3535 114.6 26.3535C114.201 26.3535 113.878 26.6768 113.878 27.0757C113.878 27.4745 114.201 27.7978 114.6 27.7978Z" fill="white"></path>
<path d="M119.888 28.9785C120.599 28.9785 121.239 29.2559 121.752 29.7425L121.201 30.4646C120.844 30.1406 120.426 29.8907 119.929 29.8907C118.572 29.8907 117.932 31.219 117.932 32.4074C117.932 33.5899 118.555 34.8966 119.9 34.8966C120.468 34.8966 120.988 34.6228 121.397 34.2415L121.869 34.9779C121.306 35.4885 120.576 35.8077 119.809 35.8077C117.892 35.8077 116.819 34.1853 116.819 32.4062C116.819 30.6189 117.977 28.9785 119.888 28.9785Z" fill="white"></path>
<path d="M122.564 34.9242L123.087 34.3396C123.576 34.8429 124.262 35.1669 124.97 35.1669C125.638 35.1669 126.396 34.8657 126.396 34.0873C126.396 33.4298 125.832 33.1811 125.313 32.9408C125.082 32.8332 123.951 32.3741 123.662 32.1792C123.189 31.8624 122.897 31.3686 122.897 30.7983C122.897 29.6565 124.018 29.042 125.042 29.042C125.788 29.042 126.529 29.3277 127.06 29.8598L126.591 30.405C126.166 30.0044 125.626 29.7809 125.04 29.7809C124.442 29.7809 123.77 30.0582 123.77 30.7493C123.77 31.3566 124.365 31.6352 124.853 31.8301C125.093 31.9257 126.223 32.3932 126.518 32.5905C127.008 32.9193 127.28 33.4298 127.28 34.0192C127.28 35.2734 125.931 35.9034 124.959 35.9034C124.065 35.9034 123.193 35.5627 122.564 34.9242Z" fill="white"></path>
<path d="M130.871 34.656L131.527 33.9196C132.147 34.552 133.012 34.9633 133.903 34.9633C134.746 34.9633 135.702 34.5831 135.702 33.5992C135.702 32.7706 134.992 32.4562 134.337 32.1537C134.044 32.0186 132.619 31.4387 132.253 31.1925C131.658 30.7943 131.288 30.1714 131.288 29.4505C131.288 28.011 132.708 27.2339 133.995 27.2339C134.937 27.2339 135.87 27.5973 136.542 28.2645L135.951 28.9519C135.413 28.4462 134.735 28.1629 133.995 28.1629C133.24 28.1629 132.393 28.5144 132.393 29.3835C132.393 30.1487 133.145 30.5014 133.76 30.7465C134.063 30.8685 135.487 31.4579 135.859 31.7066C136.48 32.1226 136.819 32.7658 136.819 33.5095C136.819 35.09 135.124 35.8875 133.892 35.8875C132.766 35.8899 131.665 35.4595 130.871 34.656Z" fill="white"></path>
<path d="M138.786 35.1573C138.47 34.7281 138.313 34.092 138.313 33.2635V29.1411H139.401V33.1176C139.401 33.9462 139.6 34.856 140.597 34.856C141.356 34.856 141.876 34.3192 142.315 33.7584V29.1411H143.39V35.6475H142.496L142.405 34.6288H142.366C142.07 34.9863 141.753 35.2709 141.423 35.4861C141.091 35.7013 140.705 35.8077 140.268 35.8077C139.596 35.8065 139.101 35.5913 138.786 35.1573Z" fill="white"></path>
<path d="M145.542 35.6463V29.1411H146.617V35.6463H145.542Z" fill="white"></path>
<path d="M146.083 27.7978C146.482 27.7978 146.806 27.4745 146.806 27.0757C146.806 26.6768 146.482 26.3535 146.083 26.3535C145.685 26.3535 145.361 26.6768 145.361 27.0757C145.361 27.4745 145.685 27.7978 146.083 27.7978Z" fill="white"></path>
<path d="M149.357 35.2044C149.088 34.8027 148.955 34.2826 148.955 33.637V30.0359H148.012V29.205L149.009 29.1368L149.139 27.3184H150.045V29.1368H151.765V30.0359H150.045V33.6478C150.045 34.8338 150.834 35.0478 151.753 34.731L151.963 35.5607C151.587 35.6958 151.185 35.8022 150.781 35.8022C150.097 35.807 149.622 35.6061 149.357 35.2044C149.622 35.6061 149.088 34.8027 149.357 35.2044Z" fill="white"></path>
<path d="M155.41 28.9824C157.287 28.9824 158.309 30.9408 157.915 32.6612H153.611C153.688 33.8688 154.447 34.9268 155.736 34.9268C156.311 34.9268 156.841 34.7272 157.322 34.4163L157.701 35.1385C157.071 35.5533 156.362 35.8092 155.602 35.8092C153.691 35.8092 152.545 34.2011 152.545 32.409C152.55 30.7806 153.584 28.9824 155.41 28.9824ZM153.598 31.8721H157.01C157.01 31.2086 156.873 30.7064 156.596 30.3621C156.322 30.019 155.934 29.8468 155.433 29.8468C154.989 29.8468 154.589 30.0214 154.233 30.3741C153.879 30.7292 153.668 31.2265 153.598 31.8721Z" fill="white"></path>
<path d="M20.1087 37.7445H15.7326L15.1855 34.4624H20.6557L20.1087 37.7445Z" fill="white"></path>
<path d="M26.0211 1.68701C30.202 4.47791 31.2927 8.55977 30.8223 12.2445C29.8447 22.0012 19.7424 33.1111 20.5476 32.382C22.7975 30.4718 30.3726 21.4711 31.796 13.0399C33.2199 4.60755 26.0211 1.68701 26.0211 1.68701Z" fill="white"></path>
<path d="M5.17716 12.245C4.70727 8.5619 5.80186 4.47785 9.97836 1.6875C9.97836 1.6875 2.77957 4.60804 4.20292 13.0398C5.62681 21.471 13.2058 30.4717 15.4513 32.3819C16.2609 33.1105 6.15742 22.0016 5.17716 12.245Z" fill="white"></path>
<path d="M13.4537 13.7694C13.7524 18.9075 15.0827 25.7097 17.3594 32.821H18.4846C20.7575 25.7097 22.0879 18.9114 22.3865 13.7738C22.8203 6.35453 21.2794 1.58998 18.815 0.272211C18.5864 0.149131 18.3309 0.0446502 17.9218 0.0380859C17.5148 0.0451972 17.2555 0.155148 17.0279 0.277681C14.562 1.59272 13.0237 6.35234 13.4537 13.7694Z" fill="white"></path>
<path d="M16.7611 32.7348C16.7611 32.7348 10.0946 21.7145 9.61263 12.1066C9.12907 2.4966 15.8306 0 15.8306 0C15.2065 0.0257099 13.8165 0.423941 12.5036 1.04043C11.1908 1.65747 6.5537 4.46478 6.46289 11.401C6.5805 17.9756 12.6579 29.1485 16.7611 32.7348Z" fill="white"></path>
<path d="M26.3574 12.106C25.8733 21.7139 19.209 32.7342 19.209 32.7342C23.3122 29.1479 29.3896 17.9761 29.5072 11.4015C29.4169 4.46472 24.7798 1.65741 23.4664 1.04092C22.1547 0.424429 20.7647 0.0261983 20.1384 0.000488371C20.1384 0.000488371 26.8372 2.49654 26.3574 12.106Z" fill="white"></path>
</svg>