<svg xmlns="http://www.w3.org/2000/svg"
 viewBox="0 0 160 40" fill="none">
<path d="M45.367 27.3869L48.1715 8.30591H51.5443L47.94 31.7003H42.4625L38.8582 8.30591H42.5625L45.367 27.3869Z" fill="white"></path>
<path d="M52.1847 8.30591H63.5344V11.6502H59.6933V31.7003H56.0206V11.645H52.1795L52.1847 8.30591Z" fill="white"></path>
<path d="M66.6722 28.1552V31.6996H63.131V28.1552H66.6722Z" fill="white"></path>
<path d="M79.651 26.0804C79.651 29.825 77.783 31.9633 74.1734 31.9633C70.5638 31.9633 68.6959 29.825 68.6959 26.0804V13.9145C68.6959 10.17 70.5638 8.03173 74.1734 8.03173C77.783 8.03173 79.651 10.17 79.651 13.9145V16.1845H76.1782V13.6775C76.1782 12.008 75.4415 11.3708 74.2734 11.3708C73.1053 11.3708 72.3686 12.008 72.3686 13.6775V26.3069C72.3686 27.9764 73.1053 28.5768 74.2734 28.5768C75.4415 28.5768 76.1782 27.9764 76.1782 26.3069V22.9679H79.651V26.0804Z" fill="white"></path>
<path d="M81.5905 13.9194C81.5905 10.1749 83.5585 8.03661 87.168 8.03661C90.7776 8.03661 92.7455 10.1749 92.7455 13.9194V26.0853C92.7455 29.8299 90.7776 31.9681 87.168 31.9681C83.5585 31.9681 81.5905 29.8299 81.5905 26.0853V13.9194ZM85.2633 26.3171C85.2633 27.9866 85.9999 28.6238 87.168 28.6238C88.3362 28.6238 89.0728 27.9866 89.0728 26.3171V13.6877C89.0728 12.0182 88.3362 11.3809 87.168 11.3809C85.9999 11.3809 85.2633 12.0182 85.2633 13.6877V26.3171Z" fill="white"></path>
<path d="M102.897 24.9116L105.401 8.30591H110.51V31.7003H107.038V14.9208L104.501 31.695H101.029L98.2926 15.1525V31.695H95.0881V8.30591H100.197L102.897 24.9116Z" fill="white"></path>
<path fill-rule="evenodd" clip-rule="evenodd" d="M18.8619 16.0852L20.9982 15.685L20.3141 16.8963L18.3094 17.2439L17.9095 18.945L17.6254 17.5441L18.8619 16.0852Z" fill="white"></path>
<path fill-rule="evenodd" clip-rule="evenodd" d="M16.1603 22.8843L17.3547 23.6795L18.6754 23.9218L18.2808 24.7328L16.8075 24.38C16.8075 24.38 16.2971 23.2318 16.155 22.9211L16.1603 22.8843Z" fill="white"></path>
<path fill-rule="evenodd" clip-rule="evenodd" d="M19.3581 21.2937L22.0101 18.3444L21.9101 16.085L22.7362 18.7973L19.7528 22.2785L19.3581 21.2937Z" fill="white"></path>
<path fill-rule="evenodd" clip-rule="evenodd" d="M19.6964 23.3997L19.8858 24.8639L18.5809 26.0594L21.3696 24.7059L20.1857 22.7361L19.6964 23.3997Z" fill="white"></path>
<path fill-rule="evenodd" clip-rule="evenodd" d="M19.6706 12.6827L24.0853 10.1653L25.3323 12.5616L23.5801 14.0994L24.4273 12.4141L23.8432 11.1712L19.6706 12.6827Z" fill="white"></path>
<path fill-rule="evenodd" clip-rule="evenodd" d="M19.286 13.0036L27.2418 20.1609L24.5951 23.7685L26.3736 20.419L19.286 13.0036Z" fill="white"></path>
<path fill-rule="evenodd" clip-rule="evenodd" d="M22.7075 17.1911L25.8646 20.5302L23.7125 24.9383L25.1647 21.0937L23.2652 18.9449L22.7075 17.1911Z" fill="white"></path>
<path fill-rule="evenodd" clip-rule="evenodd" d="M22.994 19.2657L24.7462 21.1986L22.8467 25.9754L23.7359 22.2677L22.1205 20.4349L22.994 19.2657Z" fill="white"></path>
<path fill-rule="evenodd" clip-rule="evenodd" d="M21.9448 20.7296L23.3128 22.4412L22.2394 26.4333L22.6341 23.4313L21.145 21.6091L21.9448 20.7296Z" fill="white"></path>
<path fill-rule="evenodd" clip-rule="evenodd" d="M18.3004 13.1725L23.7937 9.77555L22.8466 8.4747L18.3004 13.1725Z" fill="white"></path>
<path fill-rule="evenodd" clip-rule="evenodd" d="M17.8939 13.0302L20.5564 7.87421L22.4875 8.30608L17.8939 13.0302Z" fill="white"></path>
<path fill-rule="evenodd" clip-rule="evenodd" d="M17.2127 12.3608L18.9912 7.19428L17.2337 6.38848L17.2127 12.3608Z" fill="white"></path>
<path fill-rule="evenodd" clip-rule="evenodd" d="M19.8209 12.9303L27.4241 19.8981L28.2187 18.7236L19.8209 12.9303Z" fill="white"></path>
<path fill-rule="evenodd" clip-rule="evenodd" d="M20.4459 12.814L26.7863 16.3532L27.7913 17.9858L20.4459 12.814Z" fill="white"></path>
<path fill-rule="evenodd" clip-rule="evenodd" d="M23.5088 14.1789L25.745 14.6582L26.3817 15.7063L23.5088 14.1789Z" fill="white"></path>
<path fill-rule="evenodd" clip-rule="evenodd" d="M23.9615 14.0255L24.9402 13.3461L25.4979 14.2994L23.9615 14.0255Z" fill="white"></path>
<path fill-rule="evenodd" clip-rule="evenodd" d="M20.9137 21.9305L22.3396 23.6843L21.4398 27.4446L21.6924 24.2636L20.4559 22.4677L20.9137 21.9305Z" fill="white"></path>
<path fill-rule="evenodd" clip-rule="evenodd" d="M21.3293 25.1962L21.2083 26.8131L20.3243 27.5714L20.0612 25.8282L21.3293 25.1962Z" fill="white"></path>
<path fill-rule="evenodd" clip-rule="evenodd" d="M19.7777 25.9654L20.0987 27.7613L19.2042 28.5303L18.7411 26.471L19.7777 25.9654Z" fill="white"></path>
<path fill-rule="evenodd" clip-rule="evenodd" d="M18.4169 26.634L18.9221 28.7617L17.7855 29.736L17.1225 27.2765L18.4169 26.634Z" fill="white"></path>
<path fill-rule="evenodd" clip-rule="evenodd" d="M17.5332 12.7775L19.2643 7.3529L20.2062 7.75316L17.5332 12.7775Z" fill="white"></path>
<path fill-rule="evenodd" clip-rule="evenodd" d="M16.158 22.9368L15.4003 21.9204L14.4268 21.5148L14.29 20.6195L15.7317 20.7933L16.158 21.3937L16.5894 20.7933L18.0259 20.6195L17.8838 21.5148L16.9156 21.9204L16.158 22.9368Z" fill="white"></path>
<path fill-rule="evenodd" clip-rule="evenodd" d="M13.4648 16.0855L11.3233 15.6852L12.0126 16.8966L14.012 17.2442L14.4172 18.9453L14.7066 17.5444L13.4648 16.0855Z" fill="white"></path>
<path fill-rule="evenodd" clip-rule="evenodd" d="M16.1603 22.8843L14.9657 23.6795L13.645 23.9218L14.0396 24.7328L15.5129 24.38C15.5129 24.38 16.0233 23.2318 16.1654 22.9211L16.1603 22.8843Z" fill="white"></path>
<path fill-rule="evenodd" clip-rule="evenodd" d="M12.9613 21.2937L10.3094 18.3444L10.4093 16.085L9.58849 18.7973L12.4141 22.3312L12.9613 21.2937Z" fill="white"></path>
<path fill-rule="evenodd" clip-rule="evenodd" d="M12.6267 23.4001L12.4267 24.8642L13.7369 26.0597L10.9429 24.7062L12.1268 22.7365L12.6267 23.4001Z" fill="white"></path>
<path fill-rule="evenodd" clip-rule="evenodd" d="M14.0679 24.8856L14.6519 25.6914L16.1568 25.6176L17.6617 25.6914L18.2405 24.8856L18.0984 26.355L16.1568 27.2556L14.2152 26.355L14.0679 24.8856Z" fill="white"></path>
<path fill-rule="evenodd" clip-rule="evenodd" d="M12.642 12.6827L8.22736 10.1653L6.98032 12.5616L8.7325 14.0994L7.88008 12.4141L8.46941 11.1712L12.642 12.6827Z" fill="white"></path>
<path fill-rule="evenodd" clip-rule="evenodd" d="M13.0323 13.0036L5.07126 20.1609L7.7232 23.7685L5.93946 20.419L13.0323 13.0036Z" fill="white"></path>
<path fill-rule="evenodd" clip-rule="evenodd" d="M9.61455 17.1911L6.45748 20.5302L8.60429 24.9383L7.15204 21.0937L9.05154 18.9449L9.61455 17.1911Z" fill="white"></path>
<path fill-rule="evenodd" clip-rule="evenodd" d="M9.31943 19.2658L7.56726 21.1987L9.4615 25.9755L8.57226 22.2678L10.1876 20.435L9.31943 19.2658Z" fill="white"></path>
<path fill-rule="evenodd" clip-rule="evenodd" d="M10.3709 20.7297L8.99755 22.4413L10.0762 26.4334L9.68158 23.4315L11.1707 21.6092L10.3709 20.7297Z" fill="white"></path>
<path fill-rule="evenodd" clip-rule="evenodd" d="M14.0101 13.1721L8.51677 9.77513L9.45863 8.47427L14.0101 13.1721Z" fill="white"></path>
<path fill-rule="evenodd" clip-rule="evenodd" d="M14.4204 13.0306L11.7579 7.87461L9.82687 8.30647L14.4204 13.0306Z" fill="white"></path>
<path fill-rule="evenodd" clip-rule="evenodd" d="M15.0942 12.3608L13.3104 7.19428L15.0784 6.38848L15.0942 12.3608Z" fill="white"></path>
<path fill-rule="evenodd" clip-rule="evenodd" d="M16.1508 13.3936L15.4983 12.4772L15.3457 5.81494L16.1508 7.55293L16.9558 5.81494L16.798 12.4772L16.1508 13.3936Z" fill="white"></path>
<path fill-rule="evenodd" clip-rule="evenodd" d="M12.4883 12.9303L4.89023 19.8981L4.0957 18.7236L12.4883 12.9303Z" fill="white"></path>
<path fill-rule="evenodd" clip-rule="evenodd" d="M11.8757 12.8143L5.52998 16.3534L4.53024 17.9861L11.8757 12.8143Z" fill="white"></path>
<path fill-rule="evenodd" clip-rule="evenodd" d="M8.80884 14.1789L6.57258 14.6582L5.93064 15.7063L8.80884 14.1789Z" fill="white"></path>
<path fill-rule="evenodd" clip-rule="evenodd" d="M8.3545 14.0255L7.37581 13.3461L6.81806 14.2994L8.3545 14.0255Z" fill="white"></path>
<path fill-rule="evenodd" clip-rule="evenodd" d="M11.4038 21.9305L9.98312 23.6843L10.8776 27.4446L10.6251 24.2636L11.8668 22.4677L11.4038 21.9305Z" fill="white"></path>
<path fill-rule="evenodd" clip-rule="evenodd" d="M10.9887 25.1961L11.1203 26.8129L11.999 27.5713L12.2621 25.8281L10.9887 25.1961Z" fill="white"></path>
<path fill-rule="evenodd" clip-rule="evenodd" d="M12.5284 25.9656L12.2127 27.7615L13.1072 28.5304L13.565 26.4712L12.5284 25.9656Z" fill="white"></path>
<path fill-rule="evenodd" clip-rule="evenodd" d="M13.8897 26.634L13.3846 28.7617L14.5211 29.736L15.1841 27.2765L13.8897 26.634Z" fill="white"></path>
<path fill-rule="evenodd" clip-rule="evenodd" d="M15.3598 27.3602L14.7968 29.9829L16.1491 31.1363L17.4961 29.9829L16.9384 27.3602L16.1491 27.7552L15.3598 27.3602Z" fill="white"></path>
<path fill-rule="evenodd" clip-rule="evenodd" d="M14.7715 12.7776L13.0456 7.35303L12.0985 7.75329L14.7715 12.7776Z" fill="white"></path>
<path d="M32.0334 7.7788L31.9387 6.71494L31.5125 6.29888C27.4557 2.31205 22.1413 0.0789993 16.5217 0H16.085C10.3496 0.00526662 4.91944 2.24358 0.7942 6.29888L0.367996 6.71494L0.273283 7.7788C-0.00559139 10.9177 -0.0687328 13.6616 0.0733354 16.1685C0.210142 18.5543 0.541635 20.661 1.07834 22.5991C1.57294 24.4003 2.24119 26.0224 3.11465 27.5708C3.87235 28.9138 4.80368 30.2199 5.95601 31.5523L5.9718 31.5681C8.83947 34.7386 12.2912 37.2087 13.7645 38.262C13.9224 38.3779 15.3746 39.4365 15.5377 39.5523L16.1428 40L16.8953 39.447C17.3057 39.1468 18.3844 38.3568 18.5212 38.262C19.9945 37.2087 23.4462 34.7386 26.3191 31.5681L26.3297 31.5523C27.482 30.2199 28.4133 28.9138 29.171 27.5708C30.0445 26.0224 30.7127 24.395 31.2073 22.5991C31.7388 20.661 32.0703 18.5596 32.2123 16.1685C32.3807 13.6616 32.3176 10.9177 32.0334 7.7788ZM30.1971 16.0527C30.1445 16.9743 30.0603 17.8697 29.9392 18.6965L29.7498 19.8973C29.6183 20.6399 29.4499 21.3667 29.2605 22.0566C28.4186 25.106 27.0453 27.6234 24.809 30.2093C22.0887 33.2166 18.7632 35.5971 17.3478 36.6136C17.232 36.6978 16.6322 37.1297 16.1586 37.4773C15.6851 37.1297 15.0852 36.6926 14.9695 36.6083C13.5488 35.5918 10.2286 33.2166 7.50824 30.2093C5.26672 27.6182 3.89865 25.1007 3.05151 22.0513C2.86208 21.3614 2.69897 20.6399 2.56742 19.9026L2.38326 18.7492C2.2675 17.9013 2.17279 16.9849 2.12017 16.0474C1.98336 13.6458 2.04124 10.9967 2.3096 7.95787L2.3359 7.64187C6.06651 4.0237 10.9442 2.03292 16.0902 2.02765H16.2639C21.3888 2.04345 26.256 4.03423 29.9708 7.64187L29.9971 7.95787C30.2707 10.9967 30.3391 13.6458 30.1971 16.0527Z" fill="white"></path>
</svg>